P1
# Created by GIMP version 2.10.22 PNM plug-in
25 25
0000000000000001111100000000010000000000111110000000000000000000011111
0000000001000000000011111000000000000000000001111100000000000000000000
1111100000000000000000000111110000000000000000000011111000000000000000
0000011111000000000000000000001011100000000000000000000000000000000000
0000000000100000000000000000000000000010000000000000000000000110000000
0000000000000000011000000111111111101010111111111111111111110000111111
1111111111111111001011111111111111111111010001111111111111111111110010
1111111111000000000000000111110000000001000000000011111000000000000000
00000111110000000001000000000011111000000000000000000001111100000