P2
# Created by GIMP version 2.10.22 PNM plug-in
25 25
255
255
255
255
255
255
130
130
130
130
130
220
220
220
220
220
70
70
70
70
70
0
0
0
0
0
255
255
255
255
255
130
130
130
130
130
220
220
220
220
220
70
70
70
70
70
0
0
0
0
0
255
255
255
255
255
130
130
130
130
130
220
220
220
220
220
70
70
70
70
70
0
0
0
0
0
255
255
255
255
255
130
130
130
130
130
220
220
220
220
220
70
70
70
70
70
0
0
0
0
0
255
255
255
255
255
130
130
130
130
130
220
220
220
220
220
70
70
70
70
70
0
0
0
0
0
130
130
130
130
130
130
130
130
130
130
248
248
248
248
248
145
145
145
145
145
130
130
130
130
130
130
130
130
130
130
130
130
130
130
130
248
248
248
248
248
145
145
145
145
145
130
130
130
130
130
130
130
130
130
130
130
130
130
130
130
248
248
248
248
248
145
145
145
145
145
130
130
130
130
130
130
130
130
130
130
130
130
130
130
130
248
248
248
248
248
145
145
145
145
145
130
130
130
130
130
130
130
130
130
130
130
130
130
130
130
248
248
248
248
248
145
145
145
145
145
130
130
130
130
130
220
220
220
220
220
248
248
248
248
248
220
220
220
220
220
228
228
228
228
228
220
220
220
220
220
220
220
220
220
220
248
248
248
248
248
220
220
220
220
220
228
228
228
228
228
220
220
220
220
220
220
220
220
220
220
248
248
248
248
248
220
220
220
220
220
228
228
228
228
228
220
220
220
220
220
220
220
220
220
220
248
248
248
248
248
220
220
220
220
220
228
228
228
228
228
220
220
220
220
220
220
220
220
220
220
248
248
248
248
248
220
220
220
220
220
228
228
228
228
228
220
220
220
220
220
70
70
70
70
70
145
145
145
145
145
228
228
228
228
228
70
70
70
70
70
70
70
70
70
70
70
70
70
70
70
145
145
145
145
145
228
228
228
228
228
70
70
70
70
70
70
70
70
70
70
70
70
70
70
70
145
145
145
145
145
228
228
228
228
228
70
70
70
70
70
70
70
70
70
70
70
70
70
70
70
145
145
145
145
145
228
228
228
228
228
70
70
70
70
70
70
70
70
70
70
70
70
70
70
70
145
145
145
145
145
228
228
228
228
228
70
70
70
70
70
70
70
70
70
70
0
0
0
0
0
130
130
130
130
130
220
220
220
220
220
70
70
70
70
70
0
0
0
0
0
0
0
0
0
0
130
130
130
130
130
220
220
220
220
220
70
70
70
70
70
0
0
0
0
0
0
0
0
0
0
130
130
130
130
130
220
220
220
220
220
70
70
70
70
70
0
0
0
0
0
0
0
0
0
0
130
130
130
130
130
220
220
220
220
220
70
70
70
70
70
0
0
0
0
0
0
0
0
0
0
130
130
130
130
130
220
220
220
220
220
70
70
70
70
70
0
0
0
0
0
