P1
10 10
# Creation Time: 12-10-2021 23:47:37
# Software: dmtools
# Source: # metadata.py
# import dmtools
# 
# image = dmtools.read_png('checks_10.png')
# dmtools.write_netpbm(image, 1, 'checks_10_metadata.pbm')
# 
1 0 1 0 1 0 1 0 1 0
0 1 0 1 0 1 0 1 0 1
1 0 1 0 1 0 1 0 1 0
0 1 0 1 0 1 0 1 0 1
1 0 1 0 1 0 1 0 1 0
0 1 0 1 0 1 0 1 0 1
1 0 1 0 1 0 1 0 1 0
0 1 0 1 0 1 0 1 0 1
1 0 1 0 1 0 1 0 1 0
0 1 0 1 0 1 0 1 0 1
